<svg xmlns="http://www.w3.org/2000/svg" xmlns:ns2="http://design.blush" xmlns:xlink="http://www.w3.org/1999/xlink" width="264px" height="280px" viewBox="0 0 264 280" version="1.1">
    <title id="circle_Title">Avataaar/Circle</title>
    <desc>Created with python_avatars</desc>
    <defs>
        <circle id="circle_path-1" cx="120" cy="120" r="120" />
        <path d="M-3.19744231e-14,160 L-3.19744231e-14,-1.42108547e-14 L264,-1.42108547e-14 L264,160 L252,160 C252,226.27417 198.27417,280 132,280 C65.72583,280 12,226.27417 12,160 L12,160 L-3.19744231e-14,160 Z" id="circle_path-3" />
        <path d="M100,0 C130.927946,-5.68137151e-15 156,25.072054 156,56 L156.000809,62.1660527 C161.675838,63.1185422 166,68.05429 166,74 L166,88 C166,94.0524166 161.519235,99.0582945 155.693975,99.8813638 C153.627928,119.686472 141.237929,136.421678 124.001014,144.610469 L124,163 L128,163 C167.764502,163 200,195.235498 200,235 L200,244 L0,244 L0,235 C-4.86974701e-15,195.235498 32.235498,163 72,163 L76,163 L75.9999836,144.610943 C58.7625487,136.422324 46.3721119,119.686854 44.3051107,99.8809698 C38.480765,99.0582945 34,94.0524166 34,88 L34,74 C34,68.053942 38.3246685,63.1179645 44.0001873,62.1658855 L44,56 C44,25.072054 69.072054,5.68137151e-15 100,0 Z" id="circle_path-5" />
        <path d="M83,36.3476251 C83,52.6289957 105.161905,65.8276544 132.5,65.8276544 C159.838095,65.8276544 182,52.6289957 182,36.3476251 C182,34.9853134 181.844841,33.6445843 181.544472,32.3313638 C210.784239,41.4879251 232,68.792221 232,101.051724 L232,110 L32,110 L32,101.051724 C32,68.3970853 53.7386736,40.8197864 83.5337207,32.0021267 C83.1821692,33.4207025 83,34.871494 83,36.3476251 Z" id="circle_path-7" />
        <rect id="circle_path-9" x="0" y="0" width="264" height="280" />
        <path d="M74,0 C114.869071,0 148,33.1309285 148,74 L148,84.1482318 L148,197.608051 C135.525121,187.236892 119.490913,181 102,181 L102,181 L98,181 L98,162.610951 C115.530782,154.282984 128.048193,137.114792 129.791419,116.867187 C135.569129,116.002364 140,111.018625 140,105 L140,105 L140,92 C140,87.3536213 137.359271,83.3240177 133.496777,81.3301515 C132.723933,81.0500337 131.951808,80.748163 131.180891,80.4262497 C130.794819,80.3202581 130.400778,80.2331546 130,80.1659169 L130,80.1659169 L130.000458,79.9172528 C117.224481,74.2339715 104.877985,63.0706967 96.1104311,47.8848473 C93.1752556,42.8009742 90.8310687,37.5951441 89.0661426,32.3970356 C80.4313947,42.9409152 67.7445474,53.6023901 52.3415164,62.4953343 C42.777598,68.0170651 33.1467898,72.2910056 24,75.2659587 L24.0003852,137.246608 C29.6019576,148.318362 38.7728825,157.277529 50,162.610951 L50,162.610951 L50,181 L46,181 C38.3273639,181 30.9350359,182.200142 24.0004995,184.422941 L24,230 C24,244.105888 13.5691766,255.775526 0,257.716445 L0,74 C0,33.1309285 33.1309285,0 74,0 Z" id="circle_path-11" />
    </defs>
    <g id="circle_Avataaar/Circle" stroke="none" stroke-width="1" fill="none" fill-rule="evenodd">
        <g id="circle_Circle" transform="translate(12.000000, 40.000000)">
            <mask id="circle_mask-2" fill="white">
                <use xlink:href="#circle_path-1" />
            </mask>
            <use id="circle_Background-Color" fill="#6FBF0D" xlink:href="#circle_path-1" />
            <g id="circle_Fabric-Color" mask="url(#circle_mask-2)" fill="">
                <rect id="circle_ðŸ–Color" x="0" y="0" width="240" height="240" />
            </g>
        </g>
        <mask id="circle_mask-4" fill="white">
            <use xlink:href="#circle_path-3" />
        </mask>
        <g id="circle_Mask" />
        <g id="circle_Avataaar" mask="url(#circle_mask-4)">
            <g id="circle_Body" transform="translate(32.000000, 36.000000)">
                <mask id="circle_mask-6" fill="white">
                    <use xlink:href="#circle_path-5" />
                </mask>
                <use fill="#D0C6AC" xlink:href="#circle_path-5" />
                <g id="circle_Skin-Color" mask="url(#circle_mask-6)" fill="#EDB98A">
                    <g transform="translate(-32.000000, 0.000000)" id="circle_Color">
                        <rect x="0" y="0" width="264" height="244" />
                    </g>
                </g>
                <path d="M44,94 C44,124.927946 69.072054,150 100,150 C130.927946,150 156,124.927946 156,94 L156,94 L156,102 C156,132.927946 130.927946,158 100,158 C69.072054,158 44,132.927946 44,102 Z" id="circle_Neck-Shadow" fill-opacity="0.100000001" fill="#000000" mask="url(#circle_mask-6)" />
            </g>
            <g id="circle_Clothing" transform="translate(0.000000, 170.000000)">
                
            <defs>
        <path d="M160,29.0517235 C199.764502,29.0517235 232,61.2872215 232,101.051724 L232,110 L32,110 L32,101.051724 C32,61.2872215 64.235498,29.0517235 104,29.0517235 L105.192363,29.0520252 C105.065349,30.0355191 105,31.0365551 105,32.0517235 C105,45.8588423 117.088312,57.0517235 132,57.0517235 C146.911688,57.0517235 159,45.8588423 159,32.0517235 C159,31.0365551 158.934651,30.0355191 158.807637,29.0520252 L160,29.0517235 Z" id="collar_sweater_path-1" />
    </defs>
    <g id="collar_sweater_Clothing/Collar-+-Sweater" stroke="none" stroke-width="1" fill="none" fill-rule="evenodd">
        <mask id="collar_sweater_mask-2" fill="white">
            <use xlink:href="#collar_sweater_path-1" />
        </mask>
        <use id="collar_sweater_Clothes" fill="#E6E6E6" xlink:href="#collar_sweater_path-1" />
        <g id="collar_sweater_Fabric-Color" mask="url(#collar_sweater_mask-2)" fill="#5199E4">
            <rect id="collar_sweater_ðŸ–Color" x="0" y="0" width="264" height="110" />
        </g>
        <path d="M118.07795,50.9956082 L118,51.0567821 L119,54.207887 L114.421,53.8754994 L108.308702,58.6917545 C101.361717,54.0802103 97,47.4262523 97,40.027915 C97,32.7399202 101.232581,26.1742662 107.999601,21.5717708 L108,36.8768102 C108,42.7004148 111.977587,47.8531513 118.07795,50.9956082 Z M166,40.027915 C166,47.2334229 161.862687,53.7328485 155.229194,58.3270307 L149.58,53.8754994 L145,54.207887 L146,51.0567821 L146.015,51.0664994 L145.923049,50.9950934 C152.022847,47.8525885 156,42.7000968 156,36.8768102 L156.000973,22.2802074 C162.182048,26.8358435 166,33.1060895 166,40.027915 Z" id="collar_sweater_Collar" fill="#F2F2F2" />
    </g>
</g>
            <g id="circle_Face" transform="translate(76.000000, 82.000000)" fill="#000000">
                <g id="circle_Mouth" transform="translate(2.000000, 52.000000)">    
                    
                <defs>
        <path d="M35.117844,15.1280772 C36.1757121,24.6198025 44.2259873,32 54,32 C63.8042055,32 71.8740075,24.574136 72.8917593,15.0400546 C72.9736685,14.272746 72.1167429,13 71.042767,13 C56.1487536,13 44.7379213,13 37.0868244,13 C36.0066168,13 35.0120058,14.1784435 35.117844,15.1280772 Z" id="smile_path-1" />
    </defs>
    <g id="smile_Mouth/Smile" stroke="none" stroke-width="1" fill="none" fill-rule="evenodd">
        <mask id="smile_mask-2" fill="white">
            <use xlink:href="#smile_path-1" />
        </mask>
        <use id="smile_Mouth" fill-opacity="0.699999988" fill="#000000" xlink:href="#smile_path-1" />
        <path d="M44,2 L65,2 C67.7614237,2 70,4.23857625 70,7 L70,13 C70,15.7614237 67.7614237,18 65,18 L44,18 C41.2385763,18 39,15.7614237 39,13 L39,7 C39,4.23857625 41.2385763,2 44,2 Z" id="smile_Teeth" fill="#FFFFFF" mask="url(#smile_mask-2)" />
        <g id="smile_Tongue" mask="url(#smile_mask-2)" fill="#FF4F6D">
            <g transform="translate(38.000000, 24.000000)">
                <circle cx="11" cy="11" r="11" />
                <circle cx="21" cy="11" r="11" />
            </g>
        </g>
    </g>
</g>
                <g id="circle_Nose" transform="translate(28.000000, 40.000000)" fill-opacity="0.16">
                    
                <g id="default_Nose/Default" stroke="none" stroke-width="1" fill="none" fill-rule="evenodd" fill-opacity="0.16">
        <path d="M16,8 C16,12.418278 21.372583,16 28,16 L28,16 C34.627417,16 40,12.418278 40,8" id="default_Nose" fill="#000000" />
    </g>
</g>
                <g id="circle_Eyes" transform="translate(0.000000, 8.000000)">
                    
                <g id="happy_Eyes/Happy-ðŸ˜" stroke="none" stroke-width="1" fill="none" fill-rule="evenodd" fill-opacity="0.599999964">
        <path d="M16.1601674,22.4473116 C18.006676,18.648508 22.1644225,16 26.9975803,16 C31.8136766,16 35.9591217,18.629842 37.8153518,22.4071242 C38.3667605,23.5291977 37.5821037,24.4474817 36.790607,23.7670228 C34.3395063,21.6597833 30.8587163,20.3437884 26.9975803,20.3437884 C23.2572061,20.3437884 19.8737584,21.5787519 17.4375392,23.5716412 C16.5467928,24.3002944 15.6201012,23.5583844 16.1601674,22.4473116 Z" id="happy_Squint" fill="#000000" />
        <path d="M74.1601674,22.4473116 C76.006676,18.648508 80.1644225,16 84.9975803,16 C89.8136766,16 93.9591217,18.629842 95.8153518,22.4071242 C96.3667605,23.5291977 95.5821037,24.4474817 94.790607,23.7670228 C92.3395063,21.6597833 88.8587163,20.3437884 84.9975803,20.3437884 C81.2572061,20.3437884 77.8737584,21.5787519 75.4375392,23.5716412 C74.5467928,24.3002944 73.6201012,23.5583844 74.1601674,22.4473116 Z" id="happy_Squint" fill="#000000" />
    </g>
</g>
                <g id="circle_Eyebrow" fill-opacity="0.599999964">
                    
                <g id="default_natural_Eyebrow/Natural/Default-Natural" stroke="none" stroke-width="1" fill="none" fill-rule="evenodd" fill-opacity="0.599999964">
        <path d="M26.0390934,6.21012364 C20.2775554,6.98346216 11.2929313,12.0052479 12.04426,17.8178111 C12.0689481,18.0080543 12.3567302,18.0673468 12.4809077,17.9084937 C14.9674041,14.7203351 34.1927973,10.0365481 41.1942673,11.0147151 C41.8350523,11.1044465 42.2580662,10.4430343 41.8210501,10.0302067 C38.0765663,6.49485426 31.2003792,5.51224825 26.0390934,6.21012364" id="default_natural_Eyebrow" fill="#000000" transform="translate(27.000000, 12.000000) rotate(5.000000) translate(-27.000000, -12.000000) " />
        <path d="M85.0390934,6.21012364 C79.2775554,6.98346216 70.2929313,12.0052479 71.04426,17.8178111 C71.0689481,18.0080543 71.3567302,18.0673468 71.4809077,17.9084937 C73.9674041,14.7203351 93.1927973,10.0365481 100.194267,11.0147151 C100.835052,11.1044465 101.258066,10.4430343 100.82105,10.0302067 C97.0765663,6.49485426 90.2003792,5.51224825 85.0390934,6.21012364" id="default_natural_Eyebrow" fill="#000000" transform="translate(86.000000, 12.000000) scale(-1, 1) rotate(5.000000) translate(-86.000000, -12.000000) " />
    </g>
</g>
            </g>
            <g id="circle_Top">
                
            <defs>
        <path d="M264,0 L264,280 L232,280 L232,271 C232,231.235498 199.764502,199 160,199 L160,199 L156,199 L156.001014,180.610469 C173.531251,172.282329 186.048207,155.114429 187.791415,134.867236 C193.568906,134.002616 198,129.018777 198,123 L198,123 L198,110 C198,104.05429 193.675838,99.1185422 188.000809,98.1660527 L188,92 C188,61.072054 162.927946,36 132,36 C101.072054,36 76,61.072054 76,92 L76,92 L76.0001873,98.1658855 C70.3246685,99.1179645 66,104.053942 66,110 L66,110 L66,123 C66,129.018777 70.4310943,134.002616 76.2090181,134.867253 C77.9518263,155.114813 90.4692242,172.28298 107.999984,180.610943 L108,199 L104,199 C64.633143,199 32.6454629,230.594012 32.0096459,269.809348 L32,271 L32,280 L0,280 L0,0 L264,0 Z" id="wild_hairstylewild-path-1" />
    </defs>
    <g id="wild_Accessory" transform="translate(62.000000, 85.000000)"><defs>
        <path d="M102,3 C110.919724,3 118.702944,7.86594657 122.839966,15.0881434 C123.049977,15.0306809 123.271405,15 123.5,15 L131.5,15 C132.880712,15 134,16.1192881 134,17.5 C134,18.8807119 132.880712,20 131.5,20 L124.963112,19.9999542 C125.63735,22.2145597 126,24.5649291 126,27 C126,40.254834 115.254834,51 102,51 C88.745166,51 78,40.254834 78,27 C78,25.5817328 78.1230214,24.1921987 78.3589754,22.8414867 C78.2814883,18.460693 74.9167538,15 70.8624171,15 C67.1244063,15 63.9725878,17.9417418 63.4412238,21.8340095 C63.8076631,23.4981856 64,25.2266315 64,27 C64,40.254834 53.254834,51 40,51 C26.745166,51 16,40.254834 16,27 C16,24.5649291 16.3626501,22.2145597 17.0368877,19.9999542 L10.5,20 C9.11928813,20 8,18.8807119 8,17.5 C8,16.1192881 9.11928813,15 10.5,15 L18.5,15 C18.7285947,15 18.9500235,15.0306809 19.1603931,15.0881495 C23.2970555,7.86594657 31.0802764,3 40,3 C49.3522436,3 57.4550935,8.34929022 61.4157763,16.1550973 C63.492635,13.0394413 66.9492812,11 70.8624171,11 C74.874933,11 78.4074783,13.1443461 80.4650049,16.3947271 C84.3793874,8.45920672 92.5521607,3 102,3 Z M40,7 C28.954305,7 20,15.954305 20,27 C20,38.045695 28.954305,47 40,47 C51.045695,47 60,38.045695 60,27 C60,15.954305 51.045695,7 40,7 Z M102,7 C90.954305,7 82,15.954305 82,27 C82,38.045695 90.954305,47 102,47 C113.045695,47 122,38.045695 122,27 C122,15.954305 113.045695,7 102,7 Z" id="round_path-1" />
        <filter x="-0.8%" y="-2.1%" width="101.6%" height="108.3%" filterUnits="objectBoundingBox" id="round_filter-2">
            <feOffset dx="0" dy="2" in="SourceAlpha" result="shadowOffsetOuter1" />
            <feColorMatrix values="0 0 0 0 0   0 0 0 0 0   0 0 0 0 0  0 0 0 0.1 0" type="matrix" in="shadowOffsetOuter1" />
        </filter>
    </defs>
    <g id="round_Top/_Resources/Round" stroke="none" stroke-width="1" fill="none" fill-rule="evenodd">
        <g id="round_Lennon-Glasses">
            <use fill="black" fill-opacity="1" filter="url(#round_filter-2)" xlink:href="#round_path-1" />
            <use fill="#252C2F" fill-rule="evenodd" xlink:href="#round_path-1" />
        </g>
    </g>
</g>
    <g id="wild_Hairstyle/Wild" stroke="none" stroke-width="1" fill="none" fill-rule="evenodd" transform="translate(-1, 0)">
        <g id="wild_template-for-hairstyles" opacity=".184" transform="translate(1.000000, 0.000000)">
            <mask id="wild_hairstylewild-mask-2" fill="#fff">
                <use xlink:href="#wild_hairstylewild-path-1" />
            </mask>
            <g id="wild_Mask-Hair" />
        </g>
        <path d="M75.3966,134.2411 C75.3966,134.2411 83.0916,122.8731 85.6626,115.9421 L86.2066,121.5271 C86.2066,121.5271 107.0486,98.2341 107.7296,75.7581 L109.5966,80.3891 C109.5966,80.3891 125.1296,68.8371 128.8346,58.5941 L128.8346,63.6341 C128.8346,63.6341 136.2946,56.6331 137.2886,51.6471 C137.2886,51.6471 140.2856,62.1361 146.4156,65.9501 L147.7776,57.2321 C147.7776,57.2321 153.3626,76.8471 170.9356,86.5191 L172.0246,82.8411 C172.0246,82.8411 177.4586,89.6601 180.6066,90.8781 C180.6066,90.8781 179.4526,122.7531 191.3356,131.6081 C203.2196,140.4621 190.5506,69.0831 190.5506,69.0831 L159.4926,45.3811 L134.4286,36.0001 L73.2666,54.3711 L67.0006,117.7131 L75.3966,134.2411 Z" id="wild_Fill-1" fill-opacity=".16" fill="#000" />
        <g id="wild_Group-9" transform="translate(33.000000, 10.000000)">
            <path d="M193.5081,115.5138 C192.6601,74.4668 165.4761,45.2248 165.4761,45.2248 L178.5531,51.2188 C162.7511,21.2498 145.6791,15.4378 145.6791,15.4378 L171.4691,18.7068 C149.4311,0.9088 115.1651,4.7218 115.1651,4.7218 L119.5251,-0.0002 C109.1721,1.3568 102.3771,7.5928 102.3771,7.5928 L96.7541,1.9978 L96.7541,7.4468 C69.9871,2.1798 52.3231,13.9848 52.3231,13.9848 L69.0331,14.7118 C6.7351,30.7798 7.4621,84.0928 7.4621,84.0928 L20.7201,73.0138 C-14.8779,131.8598 6.1911,163.0998 6.1911,163.0998 L10.3681,145.4818 C10.1861,174.5418 28.8941,182.7148 28.8941,182.7148 L28.8941,161.8278 C39.9731,181.9888 55.4111,182.7148 55.4111,182.7148 L50.3251,171.9988 C59.6971,180.9088 69.8741,184.4338 76.0311,185.8218 L76.0311,170.4198 C58.5001,162.0918 45.9831,144.9238 44.2401,124.6758 C44.0721,124.6508 51.0941,105.3008 52.5051,92.9098 L52.5051,101.3468 C52.5051,101.3468 71.0301,81.9128 73.0291,52.6708 L74.1181,62.1158 C74.1181,62.1158 96.5201,51.0368 100.0311,33.4188 L96.7541,48.1308 C96.7541,48.1308 103.9041,38.5048 104.6311,35.7798 C104.6311,35.7798 105.5391,45.4068 111.1701,50.4918 C111.1701,50.4918 112.8051,39.4128 113.7131,38.3228 C113.7131,38.3228 120.2511,60.6628 136.4161,70.6518 L133.3281,53.0348 C133.3281,53.0348 137.1431,71.7418 150.0371,78.4618 C150.0371,78.4618 150.9651,107.4348 155.9671,124.6478 C155.9181,124.6558 155.8711,124.6688 155.8221,124.6758 C154.0791,144.9228 141.5621,162.0908 124.0311,170.4188 L124.0311,185.1928 C134.0101,183.7208 144.7711,177.9928 144.7711,177.9928 L140.4111,183.8048 C161.1161,182.0748 165.6571,169.8198 165.6571,169.8198 L166.7471,179.2638 C178.0081,168.7298 180.1881,156.3788 180.1881,156.3788 L189.0871,166.1878 C193.9901,128.7718 179.0981,105.3428 179.0981,105.3428 L193.5081,115.5138 Z" id="wild_Hair-Color" fill="#4A312C" ns2:color="Hair-500" />
            <path d="M44.24,124.675884 C44.139,124.6609 41.159,135.1169 41.97,139.8519 C42.965,145.6499 47.896,171.8349 71.352,184.5279 C73.073,185.0869 74.657,185.5109 76.031,185.8219 L76.031,170.4199 C58.5,162.0919 45.983,144.9239 44.24,124.675884" id="wild_Fill-4" fill-opacity=".24" fill="#000" />
            <path d="M124.0315,170.4189 L124.0315,183.5159 C146.0655,173.6019 163.8065,153.0999 155.8225,124.6759 C154.0795,144.9229 141.5615,162.0909 124.0315,170.4189 Z" id="wild_Fill-7" fill-opacity=".24" fill="#000" />
        </g>
    </g>
    <g id="wild_Facial-Hair" transform="translate(49.000000, 72.000000)" />
</g>
        </g>
    </g>
</svg>